<svg width="23" height="22" viewBox="0 0 23 22" fill="none" xmlns="http://www.w3.org/2000/svg">
<path d="M21.5 10V19C21.5 19.5304 21.2893 20.0391 20.9142 20.4142C20.5391 20.7893 20.0304 21 19.5 21H3.5C2.96957 21 2.46086 20.7893 2.08579 20.4142C1.71071 20.0391 1.5 19.5304 1.5 19V10M21.5 10H1.5M21.5 10V8M1.5 10V8M17.5 10V3M17.5 3H5.5M17.5 3V1M5.5 3V10M5.5 3V1M14.5 21V17C14.5 16.2044 14.1839 15.4413 13.6213 14.8787C13.0587 14.3161 12.2956 14 11.5 14C10.7044 14 9.94129 14.3161 9.37868 14.8787C8.81607 15.4413 8.5 16.2044 8.5 17V21M9.5 3V1M13.5 3V1" stroke="black" stroke-width="2" stroke-linecap="round" stroke-linejoin="round"/>
</svg>
