<svg width="47" height="49" viewBox="0 0 47 49" fill="none" xmlns="http://www.w3.org/2000/svg">
<path d="M22.356 9.8188C24.7662 9.1886 26.8249 11.043 26.7143 13.5496C26.6575 14.8297 26.506 16.3181 26.2491 17.9018C26.3712 17.8119 26.5028 17.7341 26.6396 17.6684C27.5858 17.2113 28.8025 17.2858 29.9897 18.361C30.9359 19.2159 31.7831 20.6254 32.2631 21.831C32.3104 21.8003 32.3641 21.7685 32.4157 21.7444C31.7031 20.6758 31.0138 19.1655 30.8348 17.8799C30.6054 16.2578 31.2022 15.1486 32.082 14.5678C33.0124 13.9496 34.2691 13.9496 35.1995 14.5678C36.0794 15.1486 36.6762 16.2578 36.4499 17.8799C36.2678 19.1666 35.5784 20.6758 34.8659 21.7444C34.9196 21.7696 34.9701 21.8003 35.0206 21.831C35.4984 20.6254 36.3457 19.2148 37.2908 18.361C38.4812 17.2858 39.6957 17.2113 40.6409 17.6684C41.646 18.1561 42.3207 19.2499 42.3238 20.4051C42.327 21.4923 41.7513 22.6113 40.3157 23.2854C39.1758 23.8202 37.5855 24.0306 36.3383 23.9813C36.3709 24.3134 36.3446 24.6554 36.2636 24.9787C38.418 24.8198 40.5567 24.469 42.6396 23.9254C45.0498 23.2919 47.1053 25.1464 46.9958 27.654C46.8053 31.9723 45.555 38.6458 42.6522 43.352C38.0065 50.8827 29.274 50.8827 24.6294 43.352C22.5023 39.904 21.2614 35.3951 20.6762 31.5339C15.5979 37.1914 8.17895 35.4575 4.34788 29.2476C1.44512 24.5403 0.19476 17.8678 0.0042593 13.5496C-0.106252 11.0419 1.94926 9.1875 4.36051 9.8188C6.44339 10.3657 8.58205 10.7164 10.7365 10.8753C10.6533 10.5487 10.6291 10.2101 10.6618 9.87798C9.41457 9.92511 7.8211 9.71687 6.68441 9.18202C5.24987 8.50798 4.6731 7.38677 4.67626 6.30173C4.67942 5.14655 5.35301 4.05274 6.35919 3.56502C7.30538 3.10798 8.5189 3.18251 9.70927 4.2544C10.6555 5.11147 11.5027 6.52203 11.9795 7.72763C12.03 7.69694 12.0805 7.66516 12.1342 7.63776C11.4217 6.57244 10.7323 5.06215 10.5502 3.77655C10.3239 2.15446 10.9207 1.04531 11.8006 0.461142C12.731 -0.153714 13.9876 -0.153714 14.918 0.461142C15.7979 1.04531 16.3947 2.15446 16.1652 3.77655C15.9863 5.06325 15.2969 6.57244 14.5844 7.63776C14.6349 7.66625 14.6854 7.69694 14.737 7.72434C15.2169 6.52203 16.0621 5.11147 17.0104 4.2544C18.1976 3.18251 19.4153 3.10798 20.3605 3.56502C21.3656 4.05274 22.0371 5.14655 22.0402 6.30173C22.0434 7.38567 21.4708 8.50798 20.0352 9.18202C18.8954 9.71687 17.3051 9.92401 16.0579 9.87798C16.0874 10.2101 16.0642 10.5487 15.9832 10.8753C18.1376 10.7164 20.2731 10.3657 22.356 9.8188ZM30.0676 7.52267V8.61977H29.0151V7.52267H30.0676ZM30.0676 5.31423V6.41133H29.0151V5.31423H30.0676ZM29.0151 6.4201V7.51391H27.9615V6.4201H29.0151ZM31.1211 6.4201V7.51391H30.0676V6.4201H31.1211ZM18.0692 40.0816V41.1787H17.0188V40.0816H18.0692ZM18.0692 37.8731V38.9702H17.0188V37.8731H18.0692ZM17.0188 38.979V40.0761H15.9653V38.979H17.0188ZM19.1217 38.979V40.0761H18.0692V38.979H19.1217ZM25.3808 21.9351C25.1988 22.6124 24.9956 23.2897 24.7725 23.9572C26.8164 24.4855 28.9077 24.8241 31.0169 24.9798C30.9359 24.6565 30.9096 24.3145 30.9422 23.9824C29.695 24.0317 28.1047 23.8213 26.9648 23.2865C26.2165 22.9357 25.7029 22.4601 25.3808 21.9351ZM31.2948 22.8524C31.3337 22.7779 31.3779 22.7067 31.4263 22.6354C31.059 21.4857 30.1886 19.9853 29.3056 19.1896C28.4825 18.4443 27.6826 18.372 27.0827 18.6646C26.447 18.9693 26.0113 19.6806 26.0092 20.4073C26.006 21.0966 26.406 21.8244 27.3995 22.2902C28.472 22.7933 30.1244 22.9851 31.2948 22.8524ZM35.8563 22.6343C35.9036 22.7056 35.9489 22.7768 35.991 22.8513C37.1571 22.9851 38.8106 22.7922 39.8873 22.2891C40.8809 21.8233 41.2776 21.0955 41.2745 20.4062C41.2745 19.6828 40.8324 18.9682 40.2031 18.6635C39.6 18.372 38.8011 18.4432 37.977 19.1885C37.094 19.9875 36.2225 21.4846 35.8563 22.6343ZM33.5166 21.4441C33.5997 21.4375 33.6808 21.4375 33.7639 21.4441C34.5038 20.4906 35.2374 18.9397 35.4079 17.7221C35.5658 16.6008 35.1932 15.861 34.6385 15.4917C34.0449 15.1004 33.2366 15.1004 32.6451 15.4917C32.0873 15.861 31.7147 16.6008 31.8726 17.7221C32.0463 18.9408 32.7798 20.4906 33.5166 21.4441ZM31.5926 26.1141C29.1614 25.9804 26.7417 25.6045 24.3873 24.9864C24.0684 24.902 23.7758 24.8713 23.5158 24.8833C22.1886 24.9491 21.2782 26.3026 21.3351 27.608C21.5171 31.7892 22.7223 38.2359 25.5145 42.7624C29.7508 49.631 37.5287 49.6343 41.7681 42.7624C44.5572 38.2359 45.7634 31.7892 45.9475 27.608C46.0254 25.8281 44.6172 24.5359 42.8922 24.9864C40.5377 25.6045 38.1191 25.9804 35.6868 26.1141C35.1711 26.7356 34.428 27.0896 33.6397 27.0896C32.8514 27.0896 32.1084 26.7356 31.5926 26.1141ZM33.6418 22.5346C32.723 22.5346 31.9799 23.3084 31.9799 24.2652C31.9799 25.2187 32.723 25.9925 33.6418 25.9925C34.5575 25.9925 35.3006 25.2187 35.3006 24.2652C35.3006 23.3084 34.5585 22.5346 33.6418 22.5346ZM28.7109 28.7336C30.6328 28.727 31.9863 30.4521 32.8493 32.049C33.0493 32.415 32.7862 32.8633 32.3925 32.8633H25.0325C24.6115 32.8633 24.3673 32.3789 24.5883 32.0216C25.4524 30.4324 26.8017 28.727 28.7109 28.7336ZM28.7109 29.823C27.5269 29.8197 26.6049 30.8204 25.9776 31.7651H31.4463C30.8169 30.8204 29.8981 29.8208 28.7109 29.823ZM38.5706 28.7336C40.4925 28.727 41.846 30.4521 42.709 32.049C42.9058 32.415 42.6459 32.8633 42.2491 32.8633H34.8922C34.4712 32.8633 34.227 32.3789 34.448 32.0216C35.3132 30.4324 36.6583 28.727 38.5706 28.7336ZM38.5706 29.823C37.3866 29.8197 36.4646 30.8204 35.8373 31.7651H41.3061C40.6767 30.8204 39.7557 29.8208 38.5706 29.823ZM33.6418 43.5581C35.7721 43.5647 37.3918 41.7223 38.4717 40.0005H28.8109C29.8918 41.7223 31.5095 43.5647 33.6418 43.5581ZM33.6418 44.6519C30.7864 44.6585 28.7583 42.1289 27.4448 39.7714C27.2006 39.4141 27.4416 38.9045 27.8742 38.9045H39.4084C39.4084 38.9165 40.202 39.1094 39.862 39.7243C38.5496 42.1015 36.512 44.6585 33.6418 44.6519ZM23.719 23.7906C24.9514 20.1903 25.5419 16.3279 25.664 13.5046C25.7418 11.7247 24.3368 10.4326 22.6117 10.883C20.2573 11.5012 17.8387 11.8771 15.4064 12.0108C14.8907 12.6322 14.1476 12.9862 13.3572 12.9862C12.5699 12.9862 11.8269 12.6322 11.3101 12.0108C8.87885 11.8771 6.45918 11.5012 4.10476 10.883C2.38078 10.4326 0.97255 11.7247 1.04938 13.5046C1.23462 17.6859 2.43972 24.1326 5.22882 28.659C8.93464 34.6618 16.0347 35.7798 20.4836 30.1003C20.3826 29.2301 20.3163 28.407 20.2836 27.6551C20.2005 25.7415 21.5519 23.8838 23.4674 23.7939C23.5527 23.7906 23.6358 23.7873 23.719 23.7906ZM11.0101 8.74691C11.0522 8.67238 11.0964 8.59785 11.1449 8.5299C10.7775 7.3802 9.90398 5.87977 9.02094 5.08188C8.2 4.33989 7.40116 4.26755 6.79808 4.5569C6.16553 4.86487 5.72665 5.57618 5.72665 6.30283C5.72349 6.99221 6.12028 7.71667 7.11383 8.18576C8.19368 8.69101 9.83767 8.87733 11.0101 8.74691ZM15.5748 8.5299C15.6222 8.59785 15.6674 8.67238 15.7064 8.74691C16.8725 8.88062 18.5291 8.68772 19.6027 8.18466C20.5962 7.71557 20.9962 6.99111 20.993 6.30173C20.9899 5.57837 20.5489 4.86378 19.9195 4.5558C19.3196 4.26646 18.5207 4.33879 17.6966 5.08079C16.8125 5.88306 15.9411 7.37691 15.5748 8.5299ZM13.2351 7.33636C13.3183 7.33307 13.3993 7.33307 13.4824 7.33636C14.2466 6.35105 14.9475 4.88241 15.1264 3.61762C15.2843 2.49642 14.9117 1.75662 14.3539 1.38726C13.7635 0.995991 12.9551 0.995991 12.3605 1.38726C11.8058 1.75662 11.4322 2.49642 11.5911 3.61762C11.7711 4.88241 12.4689 6.35215 13.2351 7.33636ZM13.3582 8.43016C12.4426 8.43016 11.6995 9.20394 11.6995 10.1607C11.6995 11.1143 12.4426 11.888 13.3582 11.888C14.2771 11.888 15.0201 11.1143 15.0201 10.1607C15.0201 9.20394 14.2771 8.43016 13.3582 8.43016ZM8.42944 14.628C10.3513 14.6215 11.7027 16.3466 12.5678 17.9435C12.7646 18.3095 12.5047 18.7578 12.1079 18.7578H4.75099C4.32999 18.7578 4.08581 18.2733 4.30684 17.916C5.16883 16.3279 6.51707 14.6226 8.42944 14.628ZM8.42944 15.7186C7.24539 15.7153 6.32341 16.7159 5.69402 17.6607H11.1628C10.5355 16.7159 9.61349 15.7153 8.42944 15.7186ZM18.2892 14.628C20.211 14.6215 21.5624 16.3466 22.4276 17.9435C22.7591 18.555 22.2928 18.7819 21.9676 18.7578H14.6076C14.1897 18.7578 13.9455 18.2733 14.1655 17.916C15.0286 16.3279 16.3768 14.6226 18.2892 14.628ZM18.2892 15.7186C17.102 15.7153 16.1831 16.7159 15.5537 17.6607H21.0225C20.3962 16.7159 19.4743 15.7153 18.2892 15.7186ZM16.3536 28.1615C17.0462 27.54 17.6577 26.7443 18.1881 25.8971H8.52732C9.06093 26.7454 9.67348 27.5411 10.365 28.1615C12.2626 29.8734 14.4528 29.8734 16.3536 28.1615ZM17.0399 28.9878C14.7454 31.0571 11.9742 31.0571 9.67664 28.9878C8.68309 28.0902 7.84741 26.8967 7.16435 25.667C6.92017 25.3097 7.16119 24.8 7.59061 24.8L19.1248 24.8033C19.5216 24.8033 19.7816 25.2538 19.5816 25.6209C18.8922 26.866 18.0481 28.0804 17.0399 28.9878Z" fill="black"/>
</svg>
