<svg width="70" height="68" viewBox="0 0 70 68" fill="none" xmlns="http://www.w3.org/2000/svg">
<path d="M68.9566 32.9883H52.7218V29.644H54.0612C58.5776 29.644 62.2525 26.0742 62.2525 21.6871V19.3726C62.2525 18.8136 61.7847 18.3593 61.2093 18.3593H58.8266C56.4002 18.3593 54.2227 19.3956 52.7218 21.0301V19.7388L54.1017 18.3984C55.6498 16.8946 56.5012 14.8973 56.5012 12.7723C56.5012 10.6474 55.6498 8.65001 54.1017 7.14622L52.4157 5.50844C52.0253 5.12923 51.332 5.12923 50.9417 5.50844L49.2556 7.14622C47.7075 8.65001 46.8561 10.6474 46.8561 12.7723C46.8561 14.8973 47.7075 16.8946 49.2556 18.3984L50.6355 19.7388V21.0301C49.1345 19.3956 46.9571 18.3593 44.5307 18.3593H42.148C41.5725 18.3593 41.1048 18.8137 41.1048 19.3726V21.6871C41.1048 26.0742 44.7798 29.644 49.2961 29.644H50.6355V32.9883H19.3574V29.644H20.6968C25.2132 29.644 28.8882 26.0742 28.8882 21.6871V19.3726C28.8882 18.8136 28.4204 18.3593 27.8449 18.3593H25.4623C23.0358 18.3593 20.8584 19.3956 19.3575 21.0301V19.7388L20.7373 18.3984C23.931 15.2961 23.931 10.2486 20.7373 7.14655L19.0513 5.50877C18.6441 5.11321 17.9844 5.11321 17.5773 5.50877L15.8912 7.14655C12.6975 10.2489 12.6975 15.2964 15.8912 18.3984L17.2711 19.7388V21.0301C15.7701 19.3956 13.5928 18.3593 11.1663 18.3593H8.78364C8.20816 18.3593 7.74041 18.8137 7.74041 19.3726V21.6871C7.74041 26.0742 11.4154 29.644 15.9317 29.644H17.2712V32.9883H1.04324C0.467755 32.9883 0 33.4427 0 34.0017C0 52.7495 15.6998 68 35 68C54.3002 68 70 52.7495 70 34.0017C70 33.4427 69.532 32.9883 68.9566 32.9883ZM58.8301 20.3832H60.1695V21.6843C60.1695 24.9533 57.4301 27.6143 54.0647 27.6143H52.7253V26.3132C52.7253 23.0409 55.4647 20.3832 58.8301 20.3832ZM48.9456 12.7695C48.9456 11.184 49.5817 9.69653 50.7326 8.57528L51.6817 7.65337L52.6308 8.57528C53.7851 9.69653 54.4178 11.184 54.4178 12.7695C54.4178 14.3549 53.7817 15.8424 52.6308 16.9637L51.6817 17.8856L50.7326 16.9637C49.5784 15.8424 48.9456 14.3549 48.9456 12.7695ZM43.1908 21.6839V20.3828H44.5303C47.899 20.3828 50.635 23.0439 50.635 26.3129V27.614H49.2956C45.9268 27.614 43.1908 24.953 43.1908 21.6839ZM25.469 20.3828H26.8084V21.6839C26.8084 24.953 24.069 27.614 20.7036 27.614H19.3642V26.3129C19.3642 23.0405 22.1036 20.3828 25.469 20.3828ZM15.5845 12.7691C15.5845 11.1837 16.2206 9.6962 17.3715 8.57494L18.3206 7.65303L19.2697 8.57494C20.424 9.6962 21.0567 11.1837 21.0567 12.7691C21.0567 14.3546 20.4206 15.8421 19.2697 16.9633L18.3206 17.8853L17.3715 16.9633C16.2173 15.8421 15.5845 14.3546 15.5845 12.7691ZM9.83308 21.6836V20.3825H11.1725C14.5413 20.3825 17.2773 23.0435 17.2773 26.3126V27.6137H15.9379C12.5691 27.6137 9.83308 24.9526 9.83308 21.6836ZM2.10612 35.0118H40.2628L39.5796 38.088C39.4013 38.8987 38.7416 39.5166 37.9037 39.6669L33.4412 40.4548C32.3946 40.6411 31.4354 41.1773 30.7455 41.9684L26.7037 46.6007C25.8724 47.552 25.4854 48.8073 25.6435 50.0463L26.0003 52.8708C26.1113 53.7567 26.4883 54.5805 27.0906 55.2572L30.2474 58.8074C30.8363 59.4711 30.9238 60.4224 30.4662 61.1775L28.0027 65.2312C13.5349 62.1746 2.58384 49.8535 2.10569 35.0089L2.10612 35.0118ZM35.0065 65.9731C33.371 65.9731 31.7623 65.8554 30.1873 65.6298L32.2638 62.2104C33.1758 60.7066 33.0008 58.8073 31.8263 57.4866L28.6695 53.9364C28.3397 53.567 28.1344 53.1126 28.0738 52.6288L27.7171 49.801C27.633 49.1211 27.845 48.4346 28.2993 47.9115L32.3411 43.2792C32.718 42.8444 33.2431 42.5502 33.8185 42.4489L38.281 41.6578C39.9536 41.3635 41.2661 40.1279 41.6228 38.5129L42.4002 35.0117H56.5553C56.4981 35.355 56.3769 35.6852 56.175 35.9793L54.8423 37.9342C54.2062 38.8692 54.011 40.0297 54.3139 41.1118L54.6505 42.3246C55.0509 43.7597 56.4004 44.7699 57.9317 44.7829L59.9846 44.7993C60.5735 44.8025 61.1625 44.9464 61.6841 45.2112L65.0966 46.947C59.9711 58.1437 48.4147 65.9731 35.0065 65.9731ZM65.8806 45.0577L62.6532 43.4134C61.8388 42.9982 60.9234 42.7759 60.0013 42.7694L57.9485 42.7531C57.3494 42.7498 56.821 42.3542 56.6662 41.792L56.3297 40.5792C56.185 40.0594 56.2758 39.5004 56.5821 39.0493L57.9148 37.0944C58.3422 36.4667 58.5913 35.7475 58.6586 35.0087H67.9063C67.7919 38.5295 67.0818 41.9065 65.8837 45.0547L65.8806 45.0577ZM35.0065 12.9323C37.5003 12.9323 39.533 10.9611 39.533 8.53544C39.533 6.10982 37.5036 4.13855 35.0065 4.13855C32.5095 4.13855 30.4801 6.10982 30.4801 8.53544C30.4801 10.9611 32.5095 12.9323 35.0065 12.9323ZM35.0065 6.16539C36.3527 6.16539 37.4464 7.22781 37.4464 8.53544C37.4464 9.84307 36.3527 10.9055 35.0065 10.9055C33.6604 10.9055 32.5667 9.84307 32.5667 8.53544C32.5667 7.22781 33.6604 6.16539 35.0065 6.16539ZM33.9633 1.98098V1.01338C33.9633 0.454369 34.4311 0 35.0065 0C35.582 0 36.0498 0.454402 36.0498 1.01338V1.98098C36.0498 2.53999 35.582 2.99436 35.0065 2.99436C34.4311 2.99436 33.9633 2.53996 33.9633 1.98098ZM35.0065 14.0798C35.582 14.0798 36.0498 14.5342 36.0498 15.0932V16.0608C36.0498 16.6198 35.582 17.0741 35.0065 17.0741C34.4311 17.0741 33.9633 16.6197 33.9633 16.0608V15.0932C33.9633 14.5342 34.4311 14.0798 35.0065 14.0798ZM27.3974 4.26902C27.6869 3.7852 28.3229 3.61848 28.821 3.89961L29.6825 4.38343C30.1806 4.66457 30.3522 5.28241 30.0628 5.76621C29.871 6.08985 29.5176 6.27291 29.1575 6.27291C28.9791 6.27291 28.8008 6.23042 28.6359 6.13562L27.7743 5.6518C27.2762 5.37066 27.1046 4.75282 27.394 4.26902H27.3974ZM39.9501 11.3074C40.2395 10.8235 40.8755 10.6568 41.3736 10.938L42.2351 11.4218C42.7332 11.7029 42.9048 12.3208 42.6154 12.8046C42.4236 13.1282 42.0702 13.3113 41.7101 13.3113C41.5317 13.3113 41.3534 13.2688 41.1885 13.174L40.3269 12.6901C39.8289 12.409 39.6572 11.7912 39.9466 11.3074H39.9501ZM27.3974 12.8046C27.108 12.3208 27.2797 11.6997 27.7777 11.4218L28.6393 10.938C29.1373 10.6602 29.7768 10.8236 30.0628 11.3074C30.3522 11.7913 30.1806 12.4124 29.6825 12.6902L28.821 13.174C28.6561 13.2656 28.4777 13.3113 28.2993 13.3113C27.9392 13.3113 27.5892 13.1283 27.394 12.8046H27.3974ZM39.9501 5.76628C39.6606 5.28247 39.8323 4.66135 40.3303 4.3835L41.1919 3.89969C41.69 3.61854 42.3294 3.78527 42.6154 4.26909C42.9048 4.75291 42.7332 5.37403 42.2351 5.65187L41.3736 6.13569C41.2087 6.22723 41.0303 6.27299 40.8519 6.27299C40.4918 6.27299 40.1418 6.08992 39.9466 5.76628H39.9501Z" fill="black"/>
</svg>
