<svg width="21" height="22" viewBox="0 0 21 22" fill="none" xmlns="http://www.w3.org/2000/svg">
<path d="M10.5 13C11.6046 13 12.5 12.1046 12.5 11C12.5 9.89543 11.6046 9 10.5 9C9.39543 9 8.5 9.89543 8.5 11C8.5 12.1046 9.39543 13 10.5 13ZM10.5 13L7.5 21M10.5 13L13.5 21M10.5 1V5M5.3 14L1.8 16M19.2 6L15.7 8M5.3 8L1.8 6M19.2 16L15.7 14M6.5 21H14.5M16.5 17.7C17.8586 16.4849 18.8162 14.8858 19.2461 13.1145C19.676 11.3432 19.5579 9.48314 18.9076 7.7804C18.2572 6.07766 17.1051 4.61253 15.6038 3.57888C14.1025 2.54524 12.3227 1.9918 10.5 1.9918C8.67728 1.9918 6.89751 2.54524 5.39621 3.57888C3.89491 4.61253 2.74284 6.07766 2.09245 7.7804C1.44206 9.48314 1.32401 11.3432 1.75392 13.1145C2.18382 14.8858 3.14142 16.4849 4.5 17.7" stroke="black" stroke-width="2" stroke-linecap="round" stroke-linejoin="round"/>
</svg>
