<svg width="52" height="57" viewBox="0 0 52 57" fill="none" xmlns="http://www.w3.org/2000/svg">
<path fill-rule="evenodd" clip-rule="evenodd" d="M49.9565 17.4064C48.6467 14.0129 46.7726 10.965 44.3851 8.34786C41.9975 5.73071 39.217 3.67571 36.1211 2.24071C32.9144 0.753571 29.5097 0 26 0C22.4903 0 19.0856 0.753572 15.8795 2.24C12.7837 3.67571 10.0032 5.73 7.61559 8.34714C5.22802 10.9643 3.35328 14.0121 2.04416 17.4057C0.687468 20.9207 0 24.6529 0 28.5C0 32.3471 0.687469 36.0793 2.04351 39.5936C3.35328 42.9871 5.22737 46.035 7.61494 48.6521C10.0025 51.2693 12.783 53.3243 15.8789 54.7593C19.0856 56.2464 22.4903 57 26 57C29.5097 57 32.9144 56.2464 36.1204 54.76C39.2163 53.3243 41.9968 51.27 44.3844 48.6529C46.772 46.0357 48.6467 42.9879 49.9558 39.5943C51.3125 36.0793 52 32.3471 52 28.5C52 24.6529 51.3125 20.9207 49.9565 17.4064ZM26 54.8571C12.7413 54.8571 1.95489 43.0336 1.95489 28.5C1.95489 13.9664 12.7413 2.14286 26 2.14286C39.2587 2.14286 50.0451 13.9664 50.0451 28.5C50.0451 43.0336 39.2587 54.8571 26 54.8571ZM36.3609 12.8243V9.07142C36.3609 8.47999 35.923 7.99999 35.3835 7.99999C33.6677 7.99999 32.0406 8.65285 30.7406 9.84928C29.2041 9.38071 27.6121 9.14285 26 9.14285C25.6305 9.14285 25.2604 9.15571 24.8922 9.18071V9.07142H22.9373V10.3564V20.5C22.9373 21.8 21.9729 22.8571 20.787 22.8571C20.2474 22.8571 19.8095 23.3371 19.8095 23.9286V45.6429C19.8095 45.685 19.8076 45.7229 19.8037 45.765C19.7476 46.3879 19.2739 46.8571 18.7018 46.8571C18.4059 46.8571 18.1277 46.7307 17.9185 46.5014C17.7093 46.2721 17.594 45.9671 17.594 45.6429V43.62V23.9286C17.594 23.3371 17.1561 22.8571 16.6165 22.8571C16.5807 22.8571 16.5449 22.8564 16.509 22.8543C15.9753 22.8257 15.4768 22.5843 15.0956 22.1664C14.6897 21.7214 14.4662 21.13 14.4662 20.5V16.405V9.07142H12.5113V16.0071C9.8194 19.4971 8.34085 23.9164 8.34085 28.5C8.34085 34.7171 11.0594 40.5343 15.6391 44.1757V45.6429C15.6391 46.54 15.9577 47.3829 16.5364 48.0179C17.1157 48.6514 17.8846 49 18.7018 49C19.8806 49 20.9088 48.2779 21.4197 47.1986C22.9067 47.6357 24.4426 47.8571 26 47.8571C27.5587 47.8571 29.0965 47.635 30.5842 47.1971C30.7276 47.4979 30.912 47.775 31.1329 48.0171C31.7122 48.6514 32.4811 49 33.2982 49C34.9873 49 36.3609 47.4943 36.3609 45.6429V44.1757C40.9405 40.5343 43.6591 34.7171 43.6591 28.5C43.6591 22.2829 40.9405 16.4657 36.3609 12.8243ZM10.2957 28.5C10.2957 25.3721 11.0699 22.33 12.5113 19.6821V20.5C12.5113 20.6029 12.5158 20.7043 12.5217 20.8057C12.5875 21.8936 13.0046 22.9057 13.7135 23.6821C14.2531 24.2736 14.9158 24.68 15.6391 24.8729V41.4371C12.263 38.1864 10.2957 33.4879 10.2957 28.5ZM21.7644 45.0807V24.8714C23.5577 24.3893 24.8922 22.6129 24.8922 20.5V11.3279C25.2597 11.3 25.6299 11.2857 26 11.2857C27.1104 11.2857 28.2097 11.4121 29.2836 11.6621L29.283 11.6629C29.2829 11.6631 29.2828 11.6633 29.2827 11.6634C29.2826 11.6635 29.2824 11.6636 29.2823 11.6636C29.2419 11.7329 29.2028 11.8036 29.1637 11.8743L29.1545 11.8911C29.1469 11.9051 29.1392 11.9193 29.1317 11.9336C29.0991 11.9943 29.0672 12.0557 29.0366 12.1171L29.0315 12.1273C29.0271 12.1361 29.0224 12.1448 29.0177 12.1536C28.9819 12.2257 28.9473 12.2986 28.9141 12.3714C28.905 12.3907 28.8965 12.41 28.888 12.4293C28.8613 12.4886 28.8352 12.5486 28.8098 12.6086C28.802 12.6264 28.7942 12.645 28.787 12.6629C28.7564 12.7371 28.7264 12.8121 28.6984 12.8871C28.6919 12.9036 28.686 12.92 28.6801 12.9364L28.68 12.9368C28.6572 12.9988 28.6345 13.0608 28.613 13.1236L28.5915 13.1871C28.5655 13.2643 28.5407 13.3414 28.5172 13.4193L28.5094 13.4471C28.4886 13.5171 28.4684 13.5879 28.4495 13.6586L28.4319 13.7257C28.413 13.7971 28.3954 13.8686 28.3784 13.9407C28.3773 13.9459 28.3761 13.9509 28.3748 13.9558L28.3748 13.9558L28.3719 13.9671C28.3537 14.0471 28.3367 14.1271 28.3204 14.2079C28.3182 14.2188 28.3161 14.2297 28.314 14.2407L28.3139 14.2411C28.3118 14.2521 28.3097 14.2632 28.3074 14.2743C28.2944 14.3407 28.2827 14.4071 28.2716 14.4743C28.2694 14.4885 28.2668 14.5028 28.2641 14.5174L28.2625 14.5264C28.2494 14.6079 28.2377 14.6893 28.2266 14.7714C28.2259 14.7765 28.2253 14.7816 28.2247 14.7867C28.2241 14.7914 28.2236 14.796 28.223 14.8007L28.223 14.801C28.2219 14.8107 28.2207 14.8205 28.2194 14.83C28.211 14.8971 28.2032 14.9643 28.1966 15.0314C28.1957 15.0421 28.1945 15.0529 28.1934 15.0636C28.1922 15.0743 28.1911 15.085 28.1901 15.0957C28.1823 15.1786 28.1751 15.2621 28.1699 15.3457C28.1693 15.36 28.1686 15.3736 28.1673 15.3879C28.1628 15.46 28.1595 15.5321 28.1569 15.6043C28.1566 15.6157 28.1561 15.6272 28.1556 15.6386C28.1551 15.65 28.1546 15.6614 28.1543 15.6729C28.1517 15.7579 28.1504 15.8436 28.1504 15.9286V30.7857C28.1504 31.3771 28.5883 31.8571 29.1278 31.8571H30.2356V45.0807C28.8639 45.5014 27.4421 45.7143 26 45.7143C24.5579 45.7143 23.1361 45.5014 21.7644 45.0807ZM34.406 45.6429C34.406 46.3121 33.9088 46.8571 33.2982 46.8571C33.0024 46.8571 32.7242 46.7307 32.515 46.5014C32.3345 46.3036 32.2218 46.0421 32.1957 45.7593C32.1924 45.7229 32.1905 45.685 32.1905 45.6429V30.7857C32.1905 30.1943 31.7526 29.7143 31.213 29.7143H30.1053V15.9286C30.1053 15.7336 30.1137 15.54 30.1313 15.3486C30.2519 14.0086 30.7901 12.7686 31.6776 11.81C32.4355 10.99 33.381 10.4514 34.406 10.2414V13.38V43.62V45.6429ZM36.3609 15.5636C39.737 18.8136 41.7043 23.5121 41.7043 28.5C41.7043 33.4879 39.737 38.1864 36.3609 41.4364V15.5636ZM17.6591 9.07142H19.614V18.2143H17.6591V9.07142Z" fill="black"/>
</svg>
