<svg width="48" height="59" viewBox="0 0 48 59" fill="none" xmlns="http://www.w3.org/2000/svg">
<path fill-rule="evenodd" clip-rule="evenodd" d="M45.0249 51.6719H47.4002C47.7317 51.6719 48 52.0016 48 52.409V58.2629C48 58.6703 47.7317 59 47.4002 59H0.599832C0.268284 59 0 58.6703 0 58.2629V52.409C0 52.0016 0.268284 51.6719 0.599832 51.6719H2.97514V46.3781C2.97514 45.9706 3.24343 45.6409 3.57497 45.6409H6.06099V40.3471C6.06099 39.9397 6.32928 39.61 6.66083 39.61H8.62902V0.737131C8.62902 0.329693 8.89731 0 9.22885 0H15.4462C15.7778 0 16.0461 0.329693 16.0461 0.737131V3.93473H20.2736V0.737131C20.2736 0.329693 20.5419 0 20.8734 0H27.2051C27.5366 0 27.8049 0.329693 27.8049 0.737131V3.93473H32.0318V0.737131C32.0318 0.329693 32.3001 0 32.6317 0H38.7711C39.1027 0 39.371 0.329693 39.371 0.737131V39.61H41.3392C41.6707 39.61 41.939 39.9397 41.939 40.3471V45.6409H44.425C44.7566 45.6409 45.0249 45.9706 45.0249 46.3781V51.6719ZM12.6474 28.1593H9.82869V39.61H17.2088V35.4557H15.0778C14.7463 35.4557 14.478 35.126 14.478 34.7186C14.478 34.3111 14.7463 33.9815 15.0778 33.9815H17.2088V28.2334C17.2088 23.7127 20.2554 20.035 23.9997 20.035C27.744 20.035 30.79 23.7127 30.79 28.2334V33.9815H32.921C33.2526 33.9815 33.5209 34.3111 33.5209 34.7186C33.5209 35.126 33.2526 35.4557 32.921 35.4557H30.79V39.61H38.1713V28.1593H35.3526C35.021 28.1593 34.7527 27.8296 34.7527 27.4221C34.7527 27.0147 35.021 26.685 35.3526 26.685H38.1713V1.47426H33.2315V4.67186C33.2315 5.07929 32.9632 5.40899 32.6317 5.40899H27.2051C26.8735 5.40899 26.6052 5.07929 26.6052 4.67186V1.47426H21.4733V4.67186C21.4733 5.07929 21.205 5.40899 20.8734 5.40899H15.4462C15.1147 5.40899 14.8464 5.07929 14.8464 4.67186V1.47426H9.82869V26.685H12.6474C12.979 26.685 13.2473 27.0147 13.2473 27.4221C13.2473 27.8296 12.979 28.1593 12.6474 28.1593ZM18.4085 39.61H29.5903V28.2334C29.5903 24.5254 27.0826 21.5093 23.9997 21.5093C20.9168 21.5093 18.4085 24.5254 18.4085 28.2334V39.61ZM40.7393 41.0843H7.26066V45.6409H40.7393V41.0843ZM43.8252 47.1152H4.1748V51.6719H43.8252V47.1152ZM1.19966 57.5257H46.8003V53.1461H1.19966V57.5257ZM18.4958 17.1325H13.8582C13.5267 17.1325 13.2584 16.8028 13.2584 16.3954V12.018C13.2584 10.0708 14.5676 8.48709 16.1773 8.48709C17.7864 8.48709 19.0956 10.0708 19.0956 12.018V16.3954C19.0956 16.8028 18.8273 17.1325 18.4958 17.1325ZM16.1773 9.96135C15.2295 9.96135 14.458 10.8842 14.458 12.018V15.6583H17.896V12.018C17.896 10.8842 17.1251 9.96135 16.1773 9.96135ZM26.3188 17.1325H21.6812C21.3497 17.1325 21.0814 16.8028 21.0814 16.3954V12.018C21.0814 10.0708 22.3906 8.48709 24.0003 8.48709C25.6094 8.48709 26.9186 10.0708 26.9186 12.018V16.3954C26.9186 16.8028 26.6503 17.1325 26.3188 17.1325ZM24.0003 9.96135C23.0525 9.96135 22.281 10.8842 22.281 12.018V15.6583H25.719V12.018C25.719 10.8842 24.9481 9.96135 24.0003 9.96135ZM29.5042 17.1325H34.1418C34.4733 17.1325 34.7416 16.8028 34.7416 16.3954V12.018C34.7416 10.0708 33.4324 8.48709 31.8227 8.48709C30.2136 8.48709 28.9044 10.0708 28.9044 12.018V16.3954C28.9044 16.8028 29.1727 17.1325 29.5042 17.1325ZM30.104 12.018C30.104 10.8842 30.8749 9.96135 31.8227 9.96135C32.7705 9.96135 33.542 10.8842 33.542 12.018V15.6583H30.104V12.018ZM15.7989 20.8225C16.1304 20.8225 16.3987 21.1522 16.3987 21.5596C16.3987 21.9671 16.1304 22.2968 15.7989 22.2968H12.6082C12.2766 22.2968 12.0083 21.9671 12.0083 21.5596C12.0083 21.1522 12.2766 20.8225 12.6082 20.8225H15.7989ZM31.2908 21.5596C31.2908 21.9671 31.5591 22.2968 31.8907 22.2968H35.0814C35.4129 22.2968 35.6812 21.9671 35.6812 21.5596C35.6812 21.1522 35.4129 20.8225 35.0814 20.8225H31.8907C31.5591 20.8225 31.2908 21.1522 31.2908 21.5596Z" fill="black"/>
</svg>
