<svg width="69" height="77" viewBox="0 0 69 77" fill="none" xmlns="http://www.w3.org/2000/svg">
<path d="M68 53.5031V23.4969C67.9987 22.1814 67.654 20.8894 67.0007 19.7505C66.3474 18.6116 65.4084 17.6658 64.2778 17.0081L38.2222 2.00502C37.0905 1.34662 35.8068 1 34.5 1C33.1932 1 31.9095 1.34662 30.7778 2.00502L4.72222 17.0081C3.59164 17.6658 2.65259 18.6116 1.99927 19.7505C1.34595 20.8894 1.00134 22.1814 1 23.4969V53.5031C1.00134 54.8186 1.34595 56.1106 1.99927 57.2495C2.65259 58.3884 3.59164 59.3342 4.72222 59.9919L30.7778 74.995C31.9095 75.6534 33.1932 76 34.5 76C35.8068 76 37.0905 75.6534 38.2222 74.995L64.2778 59.9919C65.4084 59.3342 66.3474 58.3884 67.0007 57.2495C67.654 56.1106 67.9987 54.8186 68 53.5031Z" stroke="black" stroke-width="2" stroke-linecap="round" stroke-linejoin="round"/>
<path d="M10.5938 35.7559C10.4831 35.7428 10.4147 35.6647 10.3887 35.5215L10.4766 30.9414C10.4766 30.8242 10.5514 30.7656 10.7012 30.7656L12.3027 30.9609C12.4329 30.9609 12.498 31.0358 12.498 31.1855V31.4395L19.9883 31.3613L21.7852 31.166C21.9284 31.166 22 31.2376 22 31.3809L21.707 35.707C21.694 35.8112 21.6322 35.8633 21.5215 35.8633L19.8516 35.7852C19.7734 35.7721 19.7214 35.7526 19.6953 35.7266C19.6758 35.694 19.6628 35.6354 19.6562 35.5508L19.6855 33.1387L17.166 33.1777L17.332 43.8027L19.2168 43.6953C19.321 43.7214 19.373 43.7832 19.373 43.8809L19.3926 45.6094C19.3796 45.7656 19.321 45.8438 19.2168 45.8438L13.416 45.9707C13.2728 45.9707 13.1947 45.9056 13.1816 45.7754L13.25 43.8418C13.25 43.7181 13.3021 43.6562 13.4062 43.6562L15.1445 43.7637L14.9688 33.2363L12.5078 33.373L12.5176 35.4434C12.5111 35.5671 12.4329 35.6322 12.2832 35.6387L10.5938 35.7559ZM32.1367 38.2363C34.1875 38.6595 35.2129 39.8379 35.2129 41.7715C35.2129 44.0697 34.1191 45.4531 31.9316 45.9219C31.2155 46.0716 30.5189 46.1465 29.8418 46.1465C29.1647 46.1465 28.5755 46.1335 28.0742 46.1074C27.5729 46.0879 27.0814 46.0586 26.5996 46.0195C24.9785 45.8893 24.1257 45.7591 24.041 45.6289C24.0085 45.5768 23.9889 45.5117 23.9824 45.4336L24.0703 43.998C24.0833 43.8158 24.1875 43.7246 24.3828 43.7246C24.5781 43.7246 24.9655 43.7637 25.5449 43.8418V33.1094C25.0241 33.1419 24.6497 33.1582 24.4219 33.1582C24.2005 33.1582 24.0833 33.0671 24.0703 32.8848L23.9824 31.5176C23.9954 31.3418 24.0736 31.2409 24.2168 31.2148C25.7207 30.9479 27.3581 30.8145 29.1289 30.8145C32.599 30.8145 34.334 32.1784 34.334 34.9062C34.334 36.2474 33.9108 37.2044 33.0645 37.7773C32.791 37.9661 32.4818 38.1191 32.1367 38.2363ZM27.7324 44.0957C28.3184 44.1283 28.8652 44.1445 29.373 44.1445C29.8809 44.1445 30.3626 44.1185 30.8184 44.0664C31.2806 44.0078 31.6777 43.8971 32.0098 43.7344C32.7129 43.3828 33.0645 42.735 33.0645 41.791C33.0645 40.4759 32.3678 39.7305 30.9746 39.5547C30.5645 39.5026 30.0697 39.4766 29.4902 39.4766C28.9173 39.4766 28.3314 39.5059 27.7324 39.5645V44.0957ZM30.3594 32.8945C30.0013 32.8359 29.6172 32.8066 29.207 32.8066C28.7969 32.8066 28.3053 32.8359 27.7324 32.8945V37.6504C27.9212 37.6634 28.11 37.6699 28.2988 37.6699H28.875C29.9427 37.6699 30.7337 37.5039 31.248 37.1719C31.8535 36.7878 32.1562 36.1139 32.1562 35.1504C32.1562 33.8418 31.5573 33.0898 30.3594 32.8945ZM45.8965 35.2578C46.0007 35.2578 46.0527 35.3359 46.0527 35.4922L46.1504 43.7344L47.459 43.6855C47.5892 43.6921 47.6543 43.7702 47.6543 43.9199L47.4785 45.707C47.472 45.8438 47.3939 45.9121 47.2441 45.9121H44.832C44.6302 45.9121 44.4967 45.7884 44.4316 45.541L44.1973 44.5547C43.123 45.4792 41.8991 45.9414 40.5254 45.9414C38.6048 45.9414 37.6445 44.7142 37.6445 42.2598C37.6445 41.4069 37.6934 40.4564 37.791 39.4082L37.9863 37.2012L36.7363 37.2402C36.5996 37.2402 36.5312 37.1621 36.5312 37.0059L36.7266 35.2773C36.7396 35.1992 36.7591 35.1504 36.7852 35.1309C36.8177 35.1048 36.873 35.0885 36.9512 35.082L40.0566 35.1602C40.1478 35.1602 40.1934 35.2318 40.1934 35.375C40.1608 35.6875 40.1283 36.0391 40.0957 36.4297C39.8223 39.3659 39.6855 41.179 39.6855 41.8691C39.6855 42.5592 39.8158 43.0605 40.0762 43.373C40.3366 43.679 40.8053 43.832 41.4824 43.832C42.1595 43.832 43.0221 43.5 44.0703 42.8359V37.2207L42.8496 37.1523C42.7585 37.1393 42.7031 37.084 42.6836 36.9863L42.8691 35.375C42.8952 35.2318 42.9668 35.1602 43.084 35.1602L45.8965 35.2578ZM54.2754 32.1816C54.1452 32.1816 54.0801 32.1035 54.0801 31.9473L54.1777 30.3848C54.1908 30.2546 54.2656 30.1895 54.4023 30.1895L57.752 30.375C57.8691 30.388 57.9277 30.4629 57.9277 30.5996V44.3105L58.9531 44.2031C59.0833 44.2031 59.1484 44.265 59.1484 44.3887L58.9727 45.9023C58.9531 46.013 58.8783 46.0781 58.748 46.0977L56.3262 46.4883C56.2025 46.4883 56.1406 46.4167 56.1406 46.2734L56.2188 45.3066C55.125 45.7559 54.1452 45.9805 53.2793 45.9805C52.4199 45.9805 51.7266 45.8633 51.1992 45.6289C50.6719 45.3945 50.2454 45.043 49.9199 44.5742C49.334 43.7083 49.041 42.276 49.041 40.2773C49.041 37.3867 49.7865 35.6419 51.2773 35.043C51.7786 34.8411 52.459 34.7402 53.3184 34.7402C54.1777 34.7402 55.0859 34.9225 56.043 35.2871L55.916 32.2109L54.2754 32.1816ZM56.1016 37.2695C55.1706 37.0417 54.4089 36.9277 53.8164 36.9277C53.2305 36.9277 52.7812 36.9733 52.4688 37.0645C52.1628 37.1556 51.9121 37.3281 51.7168 37.582C51.3392 38.0703 51.1504 39.0046 51.1504 40.3848C51.1504 41.7585 51.3001 42.6895 51.5996 43.1777C51.9251 43.7051 52.5469 43.9688 53.4648 43.9688C54.2201 43.9688 55.0306 43.8418 55.8965 43.5879L56.1016 37.2695Z" fill="black"/>
</svg>
