<svg width="18" height="21" viewBox="0 0 18 21" fill="none" xmlns="http://www.w3.org/2000/svg">
<path d="M9.00017 17V20M5.00017 17C4.14217 17.0019 3.30629 16.7279 2.61594 16.2184C1.92559 15.7089 1.41736 14.9909 1.16629 14.1705C0.915225 13.35 0.934625 12.4706 1.22163 11.662C1.50863 10.8534 2.04803 10.1586 2.76017 9.68C2.3211 9.13139 2.05733 8.46332 2.00319 7.76273C1.94904 7.06214 2.10702 6.36148 2.45658 5.75191C2.80613 5.14235 3.33107 4.65212 3.96309 4.34501C4.5951 4.0379 5.30492 3.92813 6.00017 4.03V4C6.00017 3.20435 6.31624 2.44129 6.87885 1.87868C7.44146 1.31607 8.20452 1 9.00017 1C9.79582 1 10.5589 1.31607 11.1215 1.87868C11.6841 2.44129 12.0002 3.20435 12.0002 4V4.04C12.6954 3.93813 13.4052 4.0479 14.0373 4.35501C14.6693 4.66212 15.1942 5.15235 15.5438 5.76191C15.8933 6.37148 16.0513 7.07214 15.9972 7.77273C15.943 8.47332 15.6792 9.14139 15.2402 9.69C15.9479 10.1702 16.483 10.8645 16.7671 11.6712C17.0512 12.4778 17.0693 13.3543 16.8188 14.1719C16.5682 14.9896 16.0622 15.7055 15.3749 16.2144C14.6877 16.7234 13.8554 16.9987 13.0002 17H5.00017Z" stroke="black" stroke-width="2" stroke-linecap="round" stroke-linejoin="round"/>
</svg>
