<svg width="23" height="16" viewBox="0 0 23 16" fill="none" xmlns="http://www.w3.org/2000/svg">
<path d="M5.5 15V1M5.5 1C4.43913 1 3.42172 1.42143 2.67157 2.17157C1.92143 2.92172 1.5 3.93913 1.5 5V15M5.5 1C7.5 1 9.5 2.33 11.5 5C13.5 7.67 15.5 9 17.5 9M9.5 15V2.8M13.5 15V7.2M17.5 1V5M17.5 15V9M17.5 9C18.168 8.99937 18.8252 8.83146 19.4117 8.51158C19.9981 8.1917 20.4951 7.73004 20.8573 7.16873C21.2195 6.60743 21.4353 5.96436 21.4851 5.29821C21.5349 4.63206 21.4171 3.96404 21.1424 3.35512C20.8677 2.74621 20.4449 2.21578 19.9125 1.81226C19.3801 1.40874 18.7552 1.14497 18.0947 1.04503C17.4342 0.94508 16.7592 1.01214 16.1313 1.24009C15.5034 1.46804 14.9426 1.84962 14.5 2.35M21.5 15V5" stroke="black" stroke-width="2" stroke-linecap="round" stroke-linejoin="round"/>
</svg>
