<svg width="44" height="57" viewBox="0 0 44 57" fill="none" xmlns="http://www.w3.org/2000/svg">
<path d="M22.8222 0C19.3786 0 16.5771 3.04407 16.5771 6.78571C16.5771 10.5274 19.3786 13.5714 22.8222 13.5714C26.2657 13.5714 29.0672 10.5274 29.0672 6.78571C29.0672 3.04407 26.2657 0 22.8222 0ZM22.8222 2.71429C24.888 2.71429 26.5692 4.541 26.5692 6.78571C26.5692 9.03043 24.888 10.8571 22.8222 10.8571C20.7563 10.8571 19.0751 9.03043 19.0751 6.78571C19.0751 4.541 20.7563 2.71429 22.8222 2.71429ZM38.5665 3.5466C37.5075 3.47671 36.4244 3.92151 35.6367 4.86133L27.2181 16.2857H19.3874L5.33844 8.15611C3.72097 7.13282 1.63528 7.6552 0.596106 9.34891C0.064027 10.2161 -0.119597 11.2547 0.0764975 12.2753C0.272592 13.2945 0.823582 14.1666 1.63044 14.7298L16.5771 25.1708V32.415L14.667 41.2418L9.36845 50.4263C8.59407 51.7699 8.55424 53.3984 9.25868 54.784C9.96562 56.171 11.259 57 12.7179 57C13.9631 57 15.1497 56.3496 15.8916 55.2612L21.8488 46.5192C22.7156 45.249 23.3399 43.8258 23.6809 42.371L25.0348 37.8171L26.2203 37.56L30.2504 41.2815L29.3282 50.2965C29.1159 52.3837 30.3698 54.3427 32.2458 54.853C33.2938 55.1352 34.4129 54.929 35.3147 54.2857C36.2165 53.6424 36.8352 52.6084 37.0126 51.4521L38.7251 40.2902C38.9899 38.5639 38.4676 36.7951 37.3297 35.5587L31.5652 29.2952V24.8527L41.267 9.62723C42.3836 7.87516 41.9865 5.4559 40.379 4.23312C39.8296 3.81529 39.202 3.58853 38.5665 3.5466ZM38.2104 6.25028C38.463 6.21991 38.7236 6.28609 38.9446 6.45438C39.4293 6.82217 39.5502 7.55131 39.213 8.07924L29.0672 24.0045V30.4191L35.5635 37.4778C36.1331 38.0953 36.3924 38.9791 36.2612 39.8422L34.5487 51.0068C34.485 51.4248 34.2697 51.7847 33.9437 52.0167C33.6177 52.2488 33.2293 52.32 32.8508 52.2182C32.1826 52.0377 31.7354 51.337 31.8116 50.5933L32.8801 40.147L26.918 34.639L23.1076 35.4686L21.2828 41.6155C21.0018 42.8084 20.5168 43.917 19.8436 44.905L13.8864 53.6469C13.2931 54.5168 11.9278 54.4179 11.4469 53.472C11.1883 52.963 11.2023 52.3623 11.4884 51.8683L17.004 42.3047L19.0434 32.8816L19.0751 23.6864L2.98191 12.4475C2.74335 12.282 2.57831 12.0239 2.52085 11.7213C2.46215 11.4186 2.51716 11.1083 2.67454 10.8518C2.87188 10.5302 3.19826 10.3535 3.54299 10.3535C3.73659 10.3535 3.93379 10.4077 4.12115 10.5258L18.7629 19H28.4183L37.5322 6.62402C37.7145 6.40756 37.9577 6.28064 38.2104 6.25028ZM42.9795 12.2355C42.5008 12.1381 41.9943 12.3521 41.7086 12.8213L34.0633 25.3775V28.5C34.0633 29.2491 34.6216 29.8571 35.3123 29.8571C36.003 29.8571 36.5613 29.2491 36.5613 28.5V26.1939L43.7919 14.3216C44.1728 13.6959 44.0164 12.8535 43.4406 12.4396C43.2963 12.3358 43.1391 12.268 42.9795 12.2355ZM1.72314 19.008C1.23972 18.9514 0.749578 19.2065 0.498527 19.6971C0.163792 20.3526 0.38071 21.1783 0.983982 21.542L11.5811 27.9407V32.5714C11.5811 33.3206 12.1394 33.9286 12.8301 33.9286C13.5208 33.9286 14.0791 33.3206 14.0791 32.5714V26.345L2.19396 19.1723C2.04377 19.081 1.88428 19.0268 1.72314 19.008Z" fill="black"/>
</svg>
