<svg width="23" height="20" viewBox="0 0 23 20" fill="none" xmlns="http://www.w3.org/2000/svg">
<path d="M5.5 14V14.01M5.5 10V10.01M17.5 14V14.01M17.5 10V10.01M13.5 19V14C13.5 13.4696 13.2893 12.9609 12.9142 12.5858C12.5391 12.2107 12.0304 12 11.5 12C10.9696 12 10.4609 12.2107 10.0858 12.5858C9.71071 12.9609 9.5 13.4696 9.5 14V19M12.5 7C12.5 7.55228 12.0523 8 11.5 8C10.9477 8 10.5 7.55228 10.5 7C10.5 6.44772 10.9477 6 11.5 6C12.0523 6 12.5 6.44772 12.5 7ZM21.5 17V5H17.5L11.5 1L5.5 5H1.5V17C1.5 17.5304 1.71071 18.0391 2.08579 18.4142C2.46086 18.7893 2.96957 19 3.5 19H19.5C20.0304 19 20.5391 18.7893 20.9142 18.4142C21.2893 18.0391 21.5 17.5304 21.5 17Z" stroke="black" stroke-width="2" stroke-linecap="round" stroke-linejoin="round"/>
</svg>
