<svg width="53" height="49" viewBox="0 0 53 49" fill="none" xmlns="http://www.w3.org/2000/svg">
<path d="M23.6667 42.3803L20.533 40.9313C19.7465 40.5672 18.8793 40.3776 18 40.3776C17.1207 40.3776 16.2535 40.5672 15.467 40.9313L5.09984 45.7351C4.66734 45.9353 4.18672 46.0297 3.70373 46.0092C3.22074 45.9887 2.75145 45.854 2.34051 45.618C1.92956 45.382 1.59065 45.0525 1.35601 44.6608C1.12137 44.2692 0.998816 43.8284 1.00001 43.3804V9.87757C1.00029 9.39021 1.14701 8.91254 1.42374 8.49807C1.70047 8.08359 2.09628 7.74867 2.56684 7.53082L15.467 1.5537C16.2535 1.18956 17.1207 1 18 1M18 1C18.8793 1 19.7465 1.18956 20.533 1.5537L32.467 7.08195C33.2535 7.44608 34.1207 7.63564 35 7.63564M18 1V40.3748M35 7.63564C35.8793 7.63564 36.7465 7.44608 37.533 7.08195L47.9002 2.2782C48.3325 2.07806 48.8128 1.9837 49.2956 2.00406C49.7783 2.02443 50.2474 2.15886 50.6583 2.39457C51.0692 2.63027 51.4081 2.95942 51.643 3.35072C51.8778 3.74203 52.0007 4.18247 52 4.6302V24.0053M35 7.63564V24.0053M43.5 31.8803V47.6303M52 39.7553H35" stroke="white" stroke-width="2" stroke-linecap="round" stroke-linejoin="round"/>
</svg>
